<?xml version="1.0" encoding="UTF-8"?>
<svg version="1.1" xmlns="http://www.w3.org/2000/svg" width="512" height="512">
<path d="M0 0 C0.69812816 -0.00350607 1.39625632 -0.00701215 2.11553988 -0.01062447 C4.4664494 -0.01996496 6.81711264 -0.01500839 9.16803265 -0.01015663 C10.86591583 -0.01389156 12.56379729 -0.01849245 14.26167601 -0.02388728 C18.93659236 -0.03615217 23.61143733 -0.03585271 28.28636611 -0.03349853 C33.32466118 -0.03309124 38.36293311 -0.04412108 43.40121746 -0.05361366 C53.27572803 -0.07024382 63.15021472 -0.07572412 73.02473811 -0.07683842 C81.04947264 -0.07778795 89.07419928 -0.08189349 97.09893131 -0.08823967 C119.83890479 -0.10585768 142.57885936 -0.11507768 165.31883971 -0.11357872 C166.54538121 -0.11349881 167.77192271 -0.1134189 169.03563213 -0.11333656 C170.87768479 -0.11321392 170.87768479 -0.11321392 172.75695064 -0.1130888 C192.66243485 -0.11227577 212.56784341 -0.1314163 232.47330574 -0.1596133 C252.90070574 -0.18832184 273.32806883 -0.20215471 293.75548953 -0.20042574 C305.22850404 -0.19976113 316.70143925 -0.20528446 328.17443562 -0.22678185 C337.94249307 -0.24496696 347.71043529 -0.24936298 357.47850231 -0.235763 C362.46365895 -0.22921982 367.44859435 -0.22916477 372.43373013 -0.2464695 C376.99659879 -0.26214571 381.55906977 -0.25939257 386.12192842 -0.24190123 C387.77333741 -0.23881928 389.42477568 -0.24250853 391.07615016 -0.25362138 C393.32074425 -0.26772686 395.56394037 -0.2571703 397.80848694 -0.24050903 C399.05521881 -0.24094377 400.30195069 -0.24137851 401.58646232 -0.24182642 C406.94713211 0.52117159 410.64355088 2.72946572 414.40550518 6.69476891 C417.20274838 10.94243451 418.34236389 14.45359207 418.35027409 19.53537273 C418.35672298 20.58541306 418.36317187 21.63545338 418.36981618 22.71731311 C418.36517038 24.4382081 418.36517038 24.4382081 418.36043072 26.19386864 C418.36496183 27.41756194 418.36949294 28.64125525 418.37416136 29.90203017 C418.38463415 33.29583088 418.38613078 36.68941972 418.38377261 40.08322155 C418.38336447 43.7445497 418.3944033 47.40584624 418.40388775 51.06715965 C418.42049947 58.23940898 418.42599738 65.41162543 418.4271125 72.58389238 C418.42806291 78.41418268 418.43217285 84.24446213 418.43851376 90.07474899 C418.45612676 106.60594697 418.46535255 123.13711899 418.46385281 139.66832642 C418.4637729 140.55949628 418.46369298 141.45066615 418.46361065 142.36884117 C418.46352889 143.26109961 418.46344713 144.15335805 418.46336289 145.07265463 C418.46255001 159.53259668 418.48168803 173.99243456 418.50988738 188.45234648 C418.53861609 203.30091378 418.55242768 218.14943027 418.55069983 232.99802607 C418.55003592 241.3338881 418.55552879 249.66964092 418.57705593 258.00547791 C418.59526759 265.10295417 418.59961526 272.20027173 418.58603708 279.29776124 C418.57950724 282.91804956 418.57939042 286.53803342 418.59674358 290.15829277 C418.61537456 294.08557554 418.60292004 298.01241383 418.5874815 301.93971825 C418.59776863 303.0802894 418.60805575 304.22086056 418.61865461 305.39599448 C418.55638089 312.55842321 417.71275273 318.4653693 412.61031759 323.81047183 C407.8977967 327.93977784 404.39889872 328.3827527 398.30905819 328.39148998 C397.61208387 328.39384221 396.91510956 328.39619444 396.19701481 328.39861795 C393.84407182 328.40531451 391.49118396 328.40484953 389.13823223 328.40443993 C387.44121331 328.40773814 385.74419516 328.41146361 384.04717803 328.41558141 C379.37002078 328.42561428 374.69287636 328.42932026 370.01570988 328.43197072 C364.97672128 328.43586991 359.93774289 328.44544846 354.8987608 328.45418358 C342.72338188 328.47395806 330.54800212 328.48401508 318.37261117 328.49291137 C312.64239232 328.49729234 306.9121744 328.50265961 301.18195629 328.50790024 C282.13960874 328.52491289 263.09726178 328.53940808 244.0549078 328.54664898 C239.11187775 328.54855895 234.16884771 328.55047927 229.22581768 328.55243492 C227.99721707 328.55291866 226.76861646 328.5534024 225.50278553 328.5539008 C205.59077499 328.56220489 185.67882446 328.58754804 165.76684013 328.6200156 C145.33495593 328.65305997 124.90310224 328.67109533 104.47119117 328.67429322 C92.99480294 328.67646066 81.51850223 328.68524362 70.04214001 328.71075439 C60.2704046 328.73242551 50.49877796 328.74052949 40.72702125 328.73078761 C35.73984194 328.7262326 30.75288722 328.7281988 25.76573849 328.74754906 C21.20098675 328.76510775 16.63662468 328.76424256 12.07186922 328.74865177 C10.41975444 328.74626458 8.76761318 328.75065652 7.11553898 328.76248042 C4.86999073 328.77755743 2.62583066 328.76795761 0.38031673 328.75225353 C-0.86695721 328.75323034 -2.11423116 328.75420715 -3.39930129 328.75521356 C-8.76129148 327.99403693 -12.4568278 325.78582333 -16.21949482 321.81976891 C-19.01673802 317.5721033 -20.15635353 314.06094574 -20.16426373 308.97916508 C-20.17071262 307.92912475 -20.17716151 306.87908443 -20.18380582 305.7972247 C-20.18070862 304.64996138 -20.17761142 303.50269805 -20.17442036 302.32066917 C-20.17895147 301.09697587 -20.18348258 299.87328256 -20.188151 298.61250764 C-20.19862379 295.21870693 -20.20012042 291.82511809 -20.19776225 288.43131626 C-20.19735411 284.76998811 -20.20839294 281.10869158 -20.21787739 277.44737816 C-20.23448911 270.27512883 -20.23998701 263.10291238 -20.24110214 255.93064543 C-20.24205255 250.10035513 -20.24616249 244.27007568 -20.2525034 238.43978882 C-20.2701164 221.90859084 -20.27934219 205.37741883 -20.27784245 188.8462114 C-20.27776253 187.95504153 -20.27768262 187.06387166 -20.27760029 186.14569664 C-20.27747765 184.80730898 -20.27747765 184.80730898 -20.27735253 183.44188318 C-20.27653965 168.98194113 -20.29567767 154.52210325 -20.32387702 140.06219133 C-20.35260573 125.21362403 -20.36641732 110.36510754 -20.36468947 95.51651174 C-20.36402555 87.18064972 -20.36951843 78.84489689 -20.39104557 70.50905991 C-20.40925723 63.41158364 -20.4136049 56.31426608 -20.40002672 49.21677657 C-20.39349688 45.59648825 -20.39338006 41.97650439 -20.41073322 38.35624504 C-20.4293642 34.42896227 -20.41690968 30.50212398 -20.40147114 26.57481956 C-20.41175826 25.43424841 -20.42204539 24.29367725 -20.43264425 23.11854333 C-20.37395065 16.3678831 -19.5226624 12.00497533 -15.90699482 6.25726891 C-10.80332808 1.4087855 -7.00385878 0.00791769 0 0 Z " fill="#333333" transform="translate(56.90699481964111,91.74273109436035)"/>
<path d="M0 0 C35.42380708 -0.08817882 70.84751068 -0.16203658 106.2713961 -0.20426132 C110.45331049 -0.20926416 114.63522464 -0.21444144 118.81713867 -0.21972656 C119.64968402 -0.2207758 120.48222937 -0.22182505 121.34000336 -0.22290608 C134.82125156 -0.24031229 148.30243154 -0.27185117 161.78363926 -0.30861118 C175.6161506 -0.34601461 189.44862621 -0.36823458 203.28118604 -0.37635398 C211.81694566 -0.381843 220.35251247 -0.39918082 228.88821273 -0.43166587 C234.74111729 -0.45280637 240.59392214 -0.45920111 246.44686211 -0.45400551 C249.82405599 -0.45144292 253.2006412 -0.45756136 256.57782173 -0.4768219 C260.2409175 -0.49669109 263.90318494 -0.49194927 267.56629944 -0.48101807 C268.63148412 -0.49266943 269.69666881 -0.5043208 270.79413182 -0.51632524 C277.08933322 -0.46546708 280.87135073 0.26954281 286 4 C299.23202609 18.62487094 291 27.72717289 291 55 C194.97 55 98.94 55 0 55 C0 36.85 0 18.7 0 0 Z " fill="#416AB8" transform="translate(183,92)"/>
<path d="M0 0 C1.84153748 1.30220985 1.84153748 1.30220985 3.73217773 3.03726196 C4.4316452 3.67578724 5.13111267 4.31431252 5.85177612 4.97218704 C9.32277522 8.24863184 12.75983691 11.55399084 16.16015625 14.90380859 C17.31770668 16.03945503 17.31770668 16.03945503 18.49864197 17.19804382 C25.53947666 24.11385725 32.55281983 31.05767766 39.55801392 38.00957298 C44.25492949 42.67059237 48.96033549 47.32227144 53.68701172 51.953125 C58.27428592 56.44771652 62.83922409 60.96388971 67.38912964 65.49629593 C69.12298282 67.21605128 70.86459679 68.92801901 72.61404419 70.63190842 C75.05586739 73.01314257 77.46795958 75.42108383 79.875 77.83740234 C80.60113998 78.53275589 81.32727997 79.22810944 82.07542419 79.9445343 C85.52429577 83.46636467 87.43197893 85.79530872 87.54418945 90.84268188 C87.28839557 94.9106717 86.1336206 96.97531562 83.1875 99.875 C82.36765625 100.70386719 81.5478125 101.53273438 80.703125 102.38671875 C79.81109375 103.24910156 78.9190625 104.11148438 78 105 C77.08734375 105.93457031 76.1746875 106.86914062 75.234375 107.83203125 C71.48424504 111.66072539 67.72659732 115.39632929 63.62890625 118.85131836 C58.08113096 123.69361942 53.00754963 128.99452023 47.8730793 134.26571274 C44.75173041 137.46446455 41.61165606 140.64478016 38.47460938 143.828125 C34.50274781 147.86000377 30.53684674 151.89720678 26.5925293 155.95605469 C23.38474328 159.25598943 20.15762904 162.53587964 16.9167614 165.80331802 C15.69158744 167.04571682 14.47359518 168.29524244 13.26321602 169.55205917 C2.64022708 180.57047686 2.64022708 180.57047686 -3.08618164 181.43017578 C-8.8654248 180.79496734 -11.10188472 178.1019383 -15 174 C-16.18915987 172.82452436 -17.38220581 171.65297308 -18.578125 170.484375 C-21.10357323 168.00445345 -23.62411633 165.52033709 -26.12109375 163.01171875 C-26.91664673 162.21447388 -26.91664673 162.21447388 -27.72827148 161.40112305 C-30.23915358 158.63476629 -30.53019527 155.87030561 -30.45570374 152.18139648 C-29.90275478 149.53449935 -29.03275111 148.45621143 -27.20874023 146.47265625 C-26.56967743 145.77720703 -25.93061462 145.08175781 -25.27218628 144.36523438 C-20.63071689 139.53369259 -15.90890814 134.7880818 -11.16015625 130.0625 C-10.02650857 128.93072136 -8.89308441 127.7987188 -7.75987244 126.66650391 C-4.80136149 123.71177989 -1.83985819 120.76007347 1.12231445 117.809021 C4.15434725 114.78728529 7.18349067 111.76265606 10.21289062 108.73828125 C16.13912967 102.82271195 22.06853842 96.91033271 28 91 C23.02789122 84.93670046 17.54907989 79.44447173 11.98175812 73.93715858 C10.29767839 72.27065236 8.61732389 70.60046971 6.93792725 68.929245 C2.16749337 64.18311703 -2.60869276 59.44280818 -7.38916016 54.70678711 C-10.32454957 51.79818101 -13.25504785 48.88472063 -16.1825943 45.96822166 C-17.29546941 44.86154568 -18.41023733 43.7567697 -19.52693939 42.65395546 C-21.084722 41.11539632 -22.63623956 39.57076773 -24.18652344 38.0246582 C-25.06999451 37.14864456 -25.95346558 36.27263092 -26.8637085 35.37007141 C-29.94158395 31.95537609 -31.03031427 30.20381132 -30.91381836 25.57763672 C-29.84034063 21.37492694 -28.46920639 19.75826657 -25.37890625 16.7578125 C-23.97608398 15.37722656 -23.97608398 15.37722656 -22.54492188 13.96875 C-21.55089347 13.02071566 -20.55675157 12.07280029 -19.5625 11.125 C-18.57094699 10.15499193 -17.58069819 9.18364877 -16.59179688 8.2109375 C-7.2114802 -0.93051357 -7.2114802 -0.93051357 0 0 Z " fill="#E5E5E5" transform="translate(123,192)"/>
<path d="M0 0 C1.2983931 -0.00073013 2.59678619 -0.00146027 3.93452454 -0.00221252 C7.47354597 -0.00363984 11.0117101 0.02563672 14.55053329 0.06065726 C18.25670711 0.09203644 21.96290329 0.09486055 25.66918945 0.1007843 C32.67793132 0.11628901 39.68628055 0.15727117 46.69484997 0.20753175 C54.67789932 0.26353083 62.66096799 0.29093816 70.64416504 0.31600893 C87.05731324 0.36819066 103.46992097 0.45983941 119.8828125 0.56762695 C119.8828125 18.71762695 119.8828125 36.86762695 119.8828125 55.56762695 C72.0328125 55.56762695 24.1828125 55.56762695 -25.1171875 55.56762695 C-25.1171875 11.56762695 -25.1171875 11.56762695 -21.1171875 5.56762695 C-15.08179048 -0.39682471 -8.02986683 -0.11881603 0 0 Z " fill="#0E3592" transform="translate(63.1171875,91.432373046875)"/>
<path d="M0 0 C17.61132605 -0.13552253 35.22220607 -0.24601387 52.83390903 -0.31087303 C61.01161449 -0.3417908 69.18897259 -0.38393095 77.36645508 -0.45263672 C84.49527199 -0.51250316 91.62383732 -0.55116429 98.75289863 -0.56453097 C102.52666401 -0.57234273 106.29970974 -0.59065682 110.07324409 -0.63438034 C113.62831288 -0.67523712 117.18236864 -0.68764351 120.73764992 -0.67864609 C122.65800554 -0.68107281 124.57825186 -0.71329359 126.49832153 -0.746521 C132.94606674 -0.70043493 137.06171152 -0.33614496 141.7402792 4.32082176 C151.49959006 17.32975389 145 36.73726764 145 53 C97.15 53 49.3 53 0 53 C0 35.51 0 18.02 0 0 Z " fill="#5974D0" transform="translate(329,93)"/>
<path d="M0 0 C1.93051964 -0.01898094 1.93051964 -0.01898094 3.90003967 -0.03834534 C5.31906531 -0.02702994 6.73808694 -0.0152025 8.15710449 -0.00291443 C9.65710801 -0.00805459 11.15710549 -0.01533661 12.65708923 -0.02459717 C16.72540857 -0.04310748 20.79307233 -0.03017539 24.86136436 -0.01050687 C29.12047457 0.00588422 33.3795434 -0.0029339 37.63867188 -0.00802612 C44.79091864 -0.01254658 51.94290385 0.00331966 59.09509277 0.03126526 C67.36188953 0.06331706 75.62821455 0.06330134 83.8950448 0.04605049 C91.85021023 0.03018204 99.80520284 0.03692097 107.76036072 0.0539875 C111.14465439 0.06085686 114.52880948 0.05982677 117.9131012 0.05244255 C121.89907971 0.04477655 125.88452193 0.05691555 129.87040901 0.08429146 C131.33249889 0.09117316 132.79463887 0.0912755 134.25672722 0.08407593 C136.25375757 0.07537596 138.25085103 0.0937819 140.24780273 0.11352539 C141.36497429 0.11633231 142.48214584 0.11913923 143.63317108 0.12203121 C147.30397304 0.74328594 148.97368112 2.06511812 151.62390137 4.62818909 C153.1105992 7.60158475 152.78667904 10.64111623 152.79187012 13.90162659 C152.79519852 14.62177948 152.79852692 15.34193237 152.80195618 16.08390808 C152.80702187 17.60875306 152.80936461 19.13360914 152.8092041 20.65846252 C152.81138629 22.9871001 152.82953333 25.31526064 152.84851074 27.64381409 C152.85144563 29.1255833 152.85342979 30.60735476 152.85437012 32.08912659 C152.86155563 32.78404205 152.86874115 33.47895752 152.87614441 34.19493103 C152.85907141 37.82373964 152.75799527 40.61958303 150.62390137 43.62818909 C147.09484382 45.98089412 145.6313612 45.88508166 141.4503479 45.90234375 C140.15766998 45.91231888 138.86499207 45.92229401 137.53314209 45.93257141 C136.09741223 45.93346723 134.66168221 45.93413079 133.22595215 45.93458557 C131.71639597 45.94220569 130.20684367 45.95063293 128.69729614 45.95980835 C124.59395569 45.98177467 120.49068976 45.99055508 116.38729715 45.99563479 C113.82416681 45.9992758 111.26105608 46.00551451 108.6979332 46.01263618 C99.75739431 46.03713794 90.81691351 46.05018418 81.87634277 46.0537262 C73.54027311 46.05736222 65.20457147 46.08726034 56.86861432 46.12913078 C49.71353266 46.16381094 42.55857309 46.17927424 35.40340793 46.17997223 C31.12912743 46.18076582 26.85522171 46.18954159 22.58102798 46.21796989 C18.56059915 46.24411196 14.54085682 46.24637791 10.52038193 46.23031425 C9.04536189 46.22849665 7.57030273 46.23521871 6.09536743 46.25113297 C4.08082052 46.27154319 2.06601545 46.25807012 0.05142212 46.24291992 C-1.07572142 46.24493125 -2.20286495 46.24694258 -3.36416435 46.24901485 C-7.36613154 45.42412157 -8.86627505 43.78836144 -11.37609863 40.62818909 C-11.87621013 37.76717387 -12.08003407 35.51204059 -12.04016113 32.65943909 C-12.04494476 31.90151062 -12.04972839 31.14358215 -12.05465698 30.36268616 C-12.05804809 28.76578181 -12.04890064 27.1688073 -12.0279541 25.57203674 C-12.00117068 23.13474507 -12.02772171 20.70205717 -12.05969238 18.26490784 C-12.05638814 16.70890814 -12.04998158 15.1529113 -12.04016113 13.59693909 C-12.05028229 12.87284851 -12.06040344 12.14875793 -12.0708313 11.40272522 C-11.98553913 7.7000097 -11.56017151 5.85953912 -9.23416901 2.93612766 C-5.82786971 0.18548527 -4.32310557 0.00226883 0 0 Z " fill="#E5E5E5" transform="translate(258.3760986328125,328.37181091308594)"/>
<path d="M0 0 C3.87830717 1.79344776 6.17352863 4.05615933 9.10546875 7.19140625 C10.09868001 8.22940568 11.09285166 9.26648687 12.08789062 10.30273438 C13.64001153 11.92887084 15.18507351 13.55988492 16.71411133 15.20776367 C23.26171674 22.74098269 23.26171674 22.74098269 32.23828125 26.21484375 C33.47964844 26.14394531 34.72101563 26.07304687 36 26 C26.82809914 37.14199648 16.26431021 47.155682 6.1159668 57.39892578 C3.49164801 60.05009245 0.87880629 62.71184539 -1.72485352 65.38330078 C-4.88471923 68.62518425 -8.0638581 71.84693953 -11.25754356 75.05550003 C-12.46566695 76.27584033 -13.66690499 77.50303901 -14.86084938 78.7372551 C-25.34389929 89.55628757 -25.34389929 89.55628757 -31.0769043 90.41650391 C-36.868623 89.80161361 -39.09629783 87.10781732 -43 83 C-44.18915987 81.82452436 -45.38220581 80.65297308 -46.578125 79.484375 C-49.10357323 77.00445345 -51.62411633 74.52033709 -54.12109375 72.01171875 C-54.91664673 71.21447388 -54.91664673 71.21447388 -55.72827148 70.40112305 C-58.23915358 67.63476629 -58.53019527 64.87030561 -58.45570374 61.18139648 C-57.90275478 58.53449935 -57.03275111 57.45621143 -55.20874023 55.47265625 C-54.56967743 54.77720703 -53.93061462 54.08175781 -53.27218628 53.36523438 C-48.63071689 48.53369259 -43.90890814 43.7880818 -39.16015625 39.0625 C-38.02650857 37.93072136 -36.89308441 36.7987188 -35.75987244 35.66650391 C-32.80136149 32.71177989 -29.83985819 29.76007347 -26.87768555 26.809021 C-23.84565275 23.78728529 -20.81650933 20.76265606 -17.78710938 17.73828125 C-11.86087033 11.82271195 -5.93146158 5.91033271 0 0 Z " fill="#BEBEBE" transform="translate(151,283)"/>
<path d="M0 0 C0.66 0.33 1.32 0.66 2 1 C-0.64 3.64 -3.28 6.28 -6 9 C-6.33 8.34 -6.66 7.68 -7 7 C-2.25 1.125 -2.25 1.125 0 0 Z " fill="#08215A" transform="translate(46,94)"/>
</svg>
