<?xml version="1.0" standalone="no"?>
<!DOCTYPE svg PUBLIC "-//W3C//DTD SVG 20010904//EN"
 "http://www.w3.org/TR/2001/REC-SVG-20010904/DTD/svg10.dtd">
<svg version="1.0" xmlns="http://www.w3.org/2000/svg"
 width="1536.000000pt" height="1024.000000pt" viewBox="0 0 1536.000000 1024.000000"
 preserveAspectRatio="xMidYMid meet">

<g transform="translate(0.000000,1024.000000) scale(0.100000,-0.100000)"
fill="#000000" stroke="none">
<path d="M0 5120 l0 -5120 7680 0 7680 0 0 5120 0 5120 -7680 0 -7680 0 0
-5120z m8210 4040 c6 0 8 6 4 13 -4 6 -5 10 -1 7 3 -3 6 -9 7 -15 1 -5 6 -16
12 -23 8 -10 6 -11 -8 -6 -10 4 -25 12 -32 17 -7 5 -16 7 -19 3 -9 -9 16 -25
40 -27 27 -2 30 -4 57 -21 14 -8 34 -20 45 -26 11 -7 14 -12 6 -12 -8 0 -11
-6 -7 -16 3 -8 2 -12 -4 -9 -6 3 -10 12 -10 20 0 19 -21 30 -30 15 -6 -9 -12
-9 -30 0 -12 6 -24 10 -26 7 -3 -2 9 -10 26 -17 16 -7 27 -16 24 -21 -3 -5 1
-6 9 -3 21 8 31 -13 33 -68 1 -45 1 -46 -23 -37 -34 13 -40 11 -17 -5 10 -8
16 -18 11 -22 -4 -4 -7 -2 -7 4 0 7 -7 12 -15 12 -8 0 -15 8 -16 18 0 10 -3
12 -6 5 -2 -7 -11 -13 -20 -13 -10 0 -12 -6 -7 -22 6 -21 6 -21 -10 -5 -20 19
-32 21 -41 7 -3 -5 -11 -10 -16 -10 -6 0 -7 5 -3 12 4 7 3 8 -4 4 -6 -4 -9
-13 -6 -21 4 -8 10 -12 15 -9 15 9 10 -13 -6 -26 -13 -11 -14 -10 -10 2 4 9
-1 22 -9 31 -8 8 -12 17 -9 21 4 3 1 6 -6 6 -7 0 -11 -8 -10 -17 1 -10 -1 -26
-6 -35 -9 -22 -30 -24 -21 -3 3 8 1 15 -4 15 -6 0 -11 -10 -11 -22 l-2 -23 -4
22 c-3 14 -9 20 -18 17 -8 -3 -11 -12 -9 -19 6 -14 -43 -45 -70 -45 -23 0 -47
-30 -41 -50 3 -10 2 -21 -3 -24 -5 -3 -8 8 -7 25 3 44 28 65 82 68 13 1 28 38
25 61 -2 11 0 11 5 3 7 -10 31 -11 53 -3 3 1 8 2 13 1 4 0 7 5 7 12 0 16 -41
17 -53 2 -5 -6 -7 -3 -4 7 8 25 -5 31 -23 11 -8 -10 -14 -16 -13 -14 2 2 -2
10 -9 18 -8 11 -8 17 2 26 10 10 12 8 6 -8 -6 -16 -5 -18 5 -7 7 6 21 12 31
12 20 0 24 15 7 26 -6 3 -15 0 -20 -7 -5 -8 -9 -9 -9 -3 0 5 5 15 11 21 6 6
14 26 18 45 7 34 14 37 69 24 12 -3 22 -1 22 5 0 5 -6 9 -14 9 -8 0 -18 5 -22
12 -4 6 -3 8 2 5 6 -3 16 -2 24 4 12 7 11 9 -5 10 -11 0 -14 3 -7 6 6 2 9 10
5 16 -5 9 -3 9 8 1 8 -7 22 -8 34 -3 19 7 19 8 -2 8 -12 1 -25 6 -28 12 -4 6
-1 10 6 8 31 -4 50 1 43 12 -5 8 -1 8 14 0 11 -6 26 -11 32 -11z m-127 -10
c-3 -12 -8 -19 -11 -16 -5 6 5 36 12 36 2 0 2 -9 -1 -20z m207 -80 c0 -5 -5
-10 -11 -10 -5 0 -7 5 -4 10 3 6 8 10 11 10 2 0 4 -4 4 -10z m-292 -64 c-7 -8
-15 -12 -17 -11 -5 6 10 25 20 25 5 0 4 -6 -3 -14z m347 -45 c-6 -5 -25 10
-25 20 0 5 6 4 14 -3 8 -7 12 -15 11 -17z m-400 -31 c-3 -5 -11 -10 -16 -10
-6 0 -7 5 -4 10 3 6 11 10 16 10 6 0 7 -4 4 -10z m25 -14 c0 -2 -7 -7 -16 -10
-8 -3 -12 -2 -9 4 6 10 25 14 25 6z m290 -6 c0 -5 -5 -10 -11 -10 -5 0 -7 5
-4 10 3 6 8 10 11 10 2 0 4 -4 4 -10z m-271 -33 c0 -9 -2 -9 -6 0 -3 10 -10
10 -26 2 -21 -10 -21 -9 -3 5 20 16 37 13 35 -7z m-99 -11 c0 -2 -7 -7 -16
-10 -8 -3 -12 -2 -9 4 6 10 25 14 25 6z m174 -34 c3 -5 -1 -9 -9 -9 -8 0 -12
4 -9 9 3 4 7 8 9 8 2 0 6 -4 9 -8z m-114 -32 c0 -5 -5 -10 -11 -10 -5 0 -7 5
-4 10 3 6 8 10 11 10 2 0 4 -4 4 -10z m40 -1 c0 -4 -6 -9 -13 -12 -8 -3 -14 0
-14 7 0 7 6 13 14 13 7 0 13 -4 13 -8z m122 -17 c12 -14 10 -14 -12 -3 -24 11
-24 11 -6 -3 28 -22 49 -21 41 3 -6 21 10 38 20 21 3 -5 0 -10 -7 -11 -7 0 -2
-4 10 -10 13 -5 29 -6 34 -3 6 4 9 1 6 -7 -3 -8 -15 -13 -26 -11 -13 2 -22 -2
-22 -9 0 -7 3 -9 7 -6 3 4 15 -1 25 -10 15 -14 19 -14 16 -3 -2 9 3 14 12 11
8 -2 21 -4 28 -4 9 0 9 -4 2 -11 -14 -14 -13 -23 5 -23 8 0 12 4 9 9 -15 23
46 -8 64 -34 13 -18 38 -26 27 -8 -3 6 -4 10 -1 10 3 0 12 -13 21 -30 9 -16
21 -30 28 -30 7 0 8 3 2 8 -16 11 -15 29 0 29 8 0 11 -5 8 -10 -4 -6 0 -8 10
-4 19 7 21 -1 8 -22 -7 -10 -22 -12 -62 -6 -30 3 -73 8 -95 9 -23 1 -49 8 -58
15 -11 9 -16 10 -16 2 0 -8 -4 -8 -14 1 -8 7 -12 16 -10 20 8 12 -60 -14 -80
-31 -16 -13 -18 -14 -14 -1 2 8 -1 21 -9 28 -7 8 -11 17 -9 21 11 17 -38 3
-50 -14 -13 -17 -14 -17 -14 -2 0 10 7 20 16 24 9 3 13 12 9 22 -8 20 -16 71
-9 53 3 -6 10 -10 15 -6 5 3 5 14 -2 26 -6 11 -7 18 -2 15 5 -3 15 -2 22 2 17
11 58 2 73 -17z m-242 8 c0 -5 -5 -10 -11 -10 -5 0 -7 5 -4 10 3 6 8 10 11 10
2 0 4 -4 4 -10z m85 -20 c3 -5 1 -10 -4 -10 -6 0 -11 5 -11 10 0 6 2 10 4 10
3 0 8 -4 11 -10z m-2 -46 c-20 -15 -30 -30 -26 -39 3 -8 10 -12 17 -8 6 3 8 3
4 -1 -4 -5 -3 -19 2 -32 13 -33 2 -30 -12 4 -9 22 -12 24 -15 9 -4 -14 -8 -16
-19 -6 -17 14 -18 30 -1 27 6 -2 10 4 8 12 -9 38 -5 45 27 48 17 2 32 8 32 14
0 6 3 8 7 4 4 -4 -7 -18 -24 -32z m29 -28 c7 4 8 2 4 -5 -9 -13 -26 -5 -25 12
0 9 2 8 6 -1 2 -6 10 -9 15 -6z m68 -45 c0 -9 -4 -22 -9 -29 -7 -11 -10 -10
-15 3 -10 27 -7 42 9 42 8 0 15 -7 15 -16z m568 -212 c12 -11 19 -25 16 -31
-4 -7 -2 -8 5 -4 6 4 14 1 17 -7 3 -8 14 -17 25 -20 15 -4 19 -12 15 -31 -6
-32 17 -54 39 -36 10 8 15 9 15 2 0 -14 -37 -35 -49 -28 -5 3 -11 0 -14 -7 -3
-8 5 -14 21 -15 28 -2 50 -18 40 -28 -4 -3 -17 0 -30 7 -12 7 -26 13 -30 14
-3 0 -10 3 -14 8 -11 11 -26 8 -19 -4 4 -5 -1 -19 -11 -30 -15 -17 -16 -22 -4
-29 25 -16 -32 -16 -107 0 -39 8 -74 17 -77 20 -2 3 -7 18 -10 33 -2 14 -8 32
-12 39 -5 9 -2 8 10 -1 15 -12 17 -12 14 0 -2 8 3 13 12 11 8 -2 12 0 8 4 -4
4 -3 13 3 21 9 10 8 13 -1 13 -7 0 -10 7 -6 16 3 8 2 12 -4 9 -6 -3 -10 -1
-10 4 0 11 13 15 35 12 6 -1 -3 10 -19 24 l-28 26 68 -5 c38 -3 70 -5 71 -5 1
-1 0 -8 -3 -16 -4 -9 0 -15 9 -15 24 0 25 33 2 52 -11 10 -15 17 -9 18 5 0 20
-9 32 -21z m112 -119 c0 -5 -5 -10 -11 -10 -5 0 -7 5 -4 10 3 6 8 10 11 10 2
0 4 -4 4 -10z m-923 -135 c-4 -8 -2 -17 3 -20 6 -4 10 0 10 7 0 8 5 6 11 -5 6
-9 14 -15 19 -12 4 3 6 -4 3 -15 -3 -11 0 -20 6 -20 8 0 9 -5 1 -19 -7 -13 -7
-22 0 -26 5 -3 10 -12 10 -18 0 -8 -4 -7 -9 2 -7 12 -13 12 -24 3 -7 -7 -17
-9 -21 -5 -4 4 -5 1 -2 -7 3 -8 2 -21 -3 -29 -8 -12 -12 -12 -25 -2 -13 11
-16 11 -16 0 -1 -8 -12 0 -26 16 -21 26 -24 37 -19 75 4 32 3 41 -4 30 -6 -8
-11 -10 -11 -5 0 19 15 31 38 29 18 -1 21 3 17 17 -5 15 -1 19 20 19 20 0 26
-4 22 -15z m58 -3 c-3 -3 -11 0 -18 7 -9 10 -8 11 6 5 10 -3 15 -9 12 -12z
m654 -48 c2 -2 2 -7 -2 -10 -9 -9 -98 6 -92 16 5 7 84 2 94 -6z m-1441 -57 c2
-12 -3 -17 -17 -17 -15 0 -21 6 -21 21 0 25 33 22 38 -4z m76 -36 c32 -35 10
-67 -48 -70 -18 -1 -18 0 -3 17 10 10 17 31 17 45 0 32 10 34 34 8z m696 -1
c0 -5 -5 -10 -11 -10 -5 0 -7 5 -4 10 3 6 8 10 11 10 2 0 4 -4 4 -10z m600 0
c0 -5 -6 -10 -14 -10 -8 0 -18 5 -21 10 -3 6 3 10 14 10 12 0 21 -4 21 -10z
m-462 -30 c19 -33 31 -37 51 -17 11 10 12 9 5 -3 -15 -26 -25 -90 -14 -87 5 1
8 -2 9 -8 3 -26 -45 5 -75 50 -16 24 -25 74 -15 93 5 10 25 -3 39 -28z m573
-16 c24 -25 24 -26 4 -40 -21 -16 -80 -34 -109 -34 -17 0 -15 5 12 31 18 17
32 40 32 50 0 27 32 24 61 -7z m-446 -24 c3 -5 1 -10 -4 -10 -6 0 -11 5 -11
10 0 6 2 10 4 10 3 0 8 -4 11 -10z m441 -82 c5 -8 0 -9 -14 -6 -12 4 -20 3
-17 -2 8 -14 -28 -17 -75 -6 l-45 10 45 7 c74 10 98 10 106 -3z m-740 -55 c-2
-3 7 -16 22 -29 22 -19 23 -23 7 -18 -23 8 -59 43 -63 62 -2 10 2 10 19 2 11
-7 18 -14 15 -17z m39 7 c3 -5 2 -10 -4 -10 -5 0 -13 5 -16 10 -3 6 -2 10 4
10 5 0 13 -4 16 -10z m805 -10 c-13 -8 -12 -10 3 -10 9 0 17 5 17 11 0 5 5 7
12 3 9 -6 9 -9 0 -12 -7 -2 -12 -10 -12 -18 0 -8 -6 -11 -17 -7 -10 3 -15 3
-11 -1 3 -4 14 -9 24 -10 10 -2 20 -9 22 -16 3 -7 0 -10 -5 -7 -6 4 -8 -4 -5
-19 2 -14 7 -22 10 -20 5 6 31 -24 32 -37 0 -5 -6 -5 -12 -1 -7 4 -3 -4 8 -17
17 -19 22 -37 22 -81 0 -36 -5 -58 -12 -58 -6 0 -3 -5 7 -11 14 -8 15 -14 7
-24 -8 -9 -8 -15 0 -20 17 -11 11 -32 -11 -38 -16 -4 -19 -11 -15 -29 3 -13 3
-17 0 -10 -3 6 -10 10 -15 6 -5 -3 -5 -13 1 -24 9 -16 7 -18 -15 -14 -14 2
-25 0 -25 -6 0 -10 15 -14 34 -11 5 1 4 -5 -3 -13 -7 -9 -18 -13 -25 -9 -6 3
-8 3 -4 -2 10 -11 -10 -45 -27 -45 -9 0 -12 -6 -9 -15 4 -8 1 -15 -6 -15 -6 0
-8 5 -5 10 3 6 -4 10 -17 9 -13 0 -17 -3 -10 -6 10 -4 10 -8 1 -19 -16 -19
-39 -18 -55 4 -7 9 -14 12 -14 5 0 -6 8 -18 18 -25 17 -13 28 -53 11 -43 -4 3
-17 -3 -29 -15 -11 -11 -20 -16 -20 -11 0 5 -13 16 -30 25 -33 16 -40 11 -13
-9 23 -17 25 -55 2 -55 -10 0 -21 -5 -24 -11 -4 -6 -1 -10 6 -8 26 3 40 -1 34
-11 -3 -5 -12 -7 -19 -4 -9 3 -17 -3 -21 -15 -3 -12 -14 -21 -23 -21 -14 0
-15 -2 -2 -10 22 -14 5 -23 -19 -10 -32 16 -45 3 -26 -26 8 -13 12 -24 7 -24
-4 0 -8 -9 -9 -20 -1 -11 3 -20 9 -20 6 0 3 -10 -8 -22 -17 -19 -17 -21 -1
-15 19 7 24 -9 5 -16 -8 -3 -5 -6 6 -6 15 -1 16 -4 6 -16 -9 -11 -15 -12 -25
-2 -7 7 -11 15 -9 18 2 4 -3 10 -12 13 -10 4 -13 2 -8 -6 5 -7 3 -8 -5 -4 -7
5 -10 15 -6 24 3 9 3 13 -1 9 -7 -7 -44 30 -44 44 0 5 8 6 18 2 16 -6 16 -5 0
14 -10 11 -18 23 -18 26 0 10 23 4 33 -8 5 -6 7 -3 3 8 -6 18 9 24 19 7 3 -5
11 -10 18 -10 6 0 2 6 -9 14 -21 15 -32 15 -72 2 -22 -7 -22 -9 -6 -20 12 -9
14 -15 5 -20 -6 -4 -8 -13 -5 -19 4 -7 -5 -1 -19 12 -15 14 -27 29 -27 35 0 5
7 1 15 -10 14 -17 14 -16 1 13 -20 41 -27 44 -63 34 -30 -9 -31 -9 -18 16 14
26 10 53 -7 53 -5 0 -6 -10 -3 -22 5 -18 4 -20 -4 -8 -8 12 -13 12 -22 3 -10
-10 -16 -8 -31 9 -12 14 -18 17 -18 7 0 -11 -2 -11 -9 -1 -4 7 -14 12 -22 10
-8 -2 -14 6 -15 19 -1 12 2 20 7 18 4 -3 10 -1 14 4 7 13 45 10 45 -4 0 -5 4
-4 9 3 4 8 12 14 17 14 5 0 8 4 7 8 -2 5 6 11 16 15 10 3 21 16 24 28 3 12 13
42 22 66 9 26 13 56 10 72 -4 18 -2 29 4 29 6 0 10 -3 10 -7 -4 -24 6 -42 41
-82 21 -24 38 -48 37 -54 -1 -5 5 -12 13 -14 13 -4 13 -3 0 6 -9 7 -10 11 -3
11 6 0 18 -8 25 -18 12 -16 23 -19 51 -14 5 1 -1 16 -13 32 -12 17 -23 41 -24
55 -1 14 -6 28 -9 32 -12 11 -8 24 6 17 9 -5 9 -4 0 6 -9 10 -15 10 -26 2 -14
-12 -27 -7 -27 10 0 5 5 6 10 3 6 -4 10 -3 9 2 -3 20 2 27 11 13 6 -9 10 -10
10 -3 0 20 -19 25 -36 8 -12 -12 -19 -13 -30 -4 -18 15 -18 20 2 12 14 -5 14
-3 3 15 -15 23 -41 18 -31 -6 5 -15 4 -15 -12 -3 -14 12 -19 12 -25 2 -6 -8
-12 -2 -21 21 -7 18 -24 45 -38 60 -27 30 -41 98 -20 98 9 0 8 3 -2 10 -16 10
-23 50 -8 50 5 0 2 13 -7 30 -18 35 -19 43 -2 34 10 -6 10 -4 0 7 -17 17 -16
26 2 26 8 0 12 -3 10 -7 -2 -4 14 -7 37 -8 23 -1 44 -4 46 -7 3 -3 13 2 23 11
16 14 17 14 15 0 -1 -8 -5 -19 -9 -22 -13 -13 -7 -24 12 -24 11 0 23 5 26 10
4 7 12 7 24 0 10 -5 21 -6 25 -3 3 3 6 1 6 -5 0 -6 -12 -10 -29 -7 -18 2 -35
-2 -42 -11 -14 -17 2 -19 32 -4 12 7 19 7 19 1 0 -5 9 -8 20 -6 27 5 25 -9 -2
-22 -22 -10 -22 -11 4 -9 14 0 24 4 22 7 -2 4 2 12 10 18 11 9 14 8 12 -5 0
-9 4 -19 10 -21 6 -2 9 9 8 25 -2 33 10 60 20 44 3 -6 2 -21 -3 -34 -12 -31 3
-61 19 -38 13 20 13 39 -1 20 -7 -11 -9 -7 -7 20 2 27 -2 36 -20 46 -28 14
-42 27 -19 18 10 -3 17 -1 17 5 0 6 -6 11 -14 11 -8 0 -18 5 -21 10 -4 6 -1 9
7 8 7 -2 12 3 10 10 -2 11 9 13 50 8 51 -6 52 -6 28 9 -24 14 -22 15 39 9 47
-5 62 -4 57 5 -4 6 -1 11 6 12 13 0 47 6 80 12 10 2 21 6 24 10 4 4 12 7 18 7
6 0 4 -5 -4 -10z m-845 -60 c3 -5 2 -10 -4 -10 -5 0 -13 5 -16 10 -3 6 -2 10
4 10 5 0 13 -4 16 -10z m-25 -224 c0 -8 9 -18 20 -21 11 -3 20 -11 20 -16 0
-6 5 -7 10 -4 6 3 14 -2 18 -12 4 -10 16 -19 27 -19 11 -1 29 -5 40 -9 16 -5
17 -5 5 4 -22 16 -3 13 23 -3 12 -8 38 -14 57 -14 52 1 100 -12 109 -31 8 -14
2 -16 -44 -13 -29 2 -62 -1 -73 -7 -15 -8 -23 -7 -32 4 -7 8 -20 14 -29 14
-13 -1 -13 -2 2 -6 9 -2 15 -9 12 -13 -3 -5 -17 -5 -32 1 -23 9 -97 4 -115 -7
-5 -3 -8 0 -8 6 0 6 -16 18 -35 26 -19 8 -35 19 -35 24 0 6 11 3 25 -6 26 -17
35 -9 11 10 -20 15 -23 57 -6 84 17 25 30 29 30 8z m50 -6 c13 -8 13 -10 -2
-10 -9 0 -20 5 -23 10 -8 13 5 13 25 0z m-100 -49 c0 -6 -4 -12 -8 -15 -5 -3
-9 1 -9 9 0 8 4 15 9 15 4 0 8 -4 8 -9z m1410 -97 c-5 -20 -10 -38 -13 -40 -7
-8 -6 119 1 131 11 17 20 -55 12 -91z m-840 -94 c6 -11 8 -20 6 -20 -3 0 -10
9 -16 20 -6 11 -8 20 -6 20 3 0 10 -9 16 -20z m54 -82 c7 -5 7 -8 1 -8 -18 0
-32 15 -40 40 l-7 25 18 -25 c10 -14 23 -28 28 -32z m-356 -99 l1 -31 -20 23
c-22 25 -24 34 -7 23 7 -5 9 -2 5 9 -4 11 -2 14 7 11 7 -3 13 -19 14 -35z m46
-45 c3 -8 2 -12 -4 -9 -6 3 -10 10 -10 16 0 14 7 11 14 -7z m416 -14 c0 -5 -4
-10 -10 -10 -5 0 -10 5 -10 10 0 6 5 10 10 10 6 0 10 -4 10 -10z m-255 -30 c3
-6 -1 -7 -9 -4 -9 3 -16 2 -16 -4 0 -6 6 -13 13 -15 9 -4 9 -6 0 -6 -15 -1
-26 16 -18 29 8 13 22 13 30 0z m200 -20 c3 -5 1 -10 -4 -10 -6 0 -11 5 -11
10 0 6 2 10 4 10 3 0 8 -4 11 -10z m-525 -84 c85 -26 237 -102 227 -112 -2 -3
-31 9 -63 25 -33 16 -76 32 -97 36 -21 4 -45 14 -53 22 -12 12 -18 12 -29 3
-9 -7 -15 -8 -15 -2 0 5 -10 12 -22 16 -19 5 -21 8 -8 16 8 5 15 10 15 10 0 0
20 -6 45 -14z m-170 -27 c0 -5 -4 -9 -10 -9 -5 0 -10 7 -10 16 0 8 5 12 10 9
6 -3 10 -10 10 -16z m50 17 c0 -2 -7 -7 -16 -10 -8 -3 -12 -2 -9 4 6 10 25 14
25 6z m150 -46 c0 -5 -4 -10 -10 -10 -5 0 -10 5 -10 10 0 6 5 10 10 10 6 0 10
-4 10 -10z m-166 -213 c-1 -9 3 -14 9 -10 6 4 8 -4 5 -21 -4 -20 -2 -24 7 -16
9 8 15 -2 22 -40 11 -53 8 -64 -7 -27 -9 22 -9 22 -10 -3 l-1 -25 -13 24 c-10
18 -15 20 -19 10 -4 -11 -6 -10 -6 3 -1 9 -5 18 -11 20 -14 5 -21 80 -8 95 14
17 33 11 32 -10z m332 -9 c8 -8 18 -28 23 -46 9 -29 8 -30 -9 -20 -10 7 -23
21 -28 32 -8 19 -9 19 -14 -6 -3 -17 -1 -25 5 -21 5 3 7 0 5 -8 -3 -8 -11 -13
-17 -11 -6 1 -11 -4 -11 -10 -1 -7 -7 -2 -15 12 l-14 25 -1 -35 c-1 -19 -4
-30 -6 -23 -4 8 -16 5 -42 -10 -20 -11 -39 -24 -42 -27 -3 -3 -17 -5 -31 -5
-26 -1 -27 2 -32 65 -6 73 -2 84 19 56 8 -11 14 -16 14 -10 0 15 72 34 91 23
19 -9 21 4 5 30 -7 11 0 13 39 9 26 -3 53 -12 61 -20z m-395 -88 c-7 -55 -9
-59 -11 -25 -3 49 0 87 8 100 11 17 12 -9 3 -75z m449 40 c0 -13 -1 -13 -10 0
-5 8 -10 22 -10 30 0 13 1 13 10 0 5 -8 10 -22 10 -30z m-580 3 c0 -22 -17
-50 -25 -42 -6 7 11 59 20 59 3 0 5 -8 5 -17z m44 6 c-3 -6 -10 -34 -14 -63
l-8 -51 -1 56 c0 31 2 59 6 62 11 11 25 8 17 -4z m226 -8 c10 -20 15 -119 5
-109 -5 4 -35 112 -35 123 0 13 21 3 30 -14z m-103 -88 c-3 -10 -5 -2 -5 17 0
19 2 27 5 18 2 -10 2 -26 0 -35z m383 33 c0 -2 -7 -7 -16 -10 -8 -3 -12 -2 -9
4 6 10 25 14 25 6z m734 -1961 c-7 -16 -24 -21 -24 -6 0 8 7 13 27 20 1 1 0
-6 -3 -14z m-199 -74 c-3 -12 -15 -21 -26 -21 -25 0 -25 17 1 25 11 3 20 11
20 17 0 6 3 9 6 5 3 -3 3 -15 -1 -26z m75 14 c0 -8 -4 -15 -8 -15 -5 0 -9 7
-9 15 0 8 4 15 9 15 4 0 8 -7 8 -15z m22 -36 c-17 -15 -27 -31 -24 -35 4 -5
-1 -2 -10 5 -23 17 -52 6 -74 -27 l-17 -27 22 19 c11 11 24 16 27 13 4 -3 -9
-15 -27 -26 l-34 -21 -7 21 c-10 25 -33 21 -114 -17 -57 -27 -68 -29 -58 -12
4 6 -3 4 -17 -5 -31 -22 -51 -22 -47 1 2 10 12 16 23 15 26 -2 55 15 55 32 0
15 11 19 39 16 7 -2 11 2 8 6 -3 5 3 9 13 10 12 1 17 -3 14 -12 -7 -17 -40
-29 -55 -19 -7 4 -10 1 -7 -6 7 -23 23 -22 59 3 19 13 40 22 47 19 7 -2 12 1
12 7 0 6 -5 11 -12 11 -6 0 -8 3 -4 7 10 10 46 11 46 1 0 -15 29 -8 39 9 5 10
23 18 41 19 22 1 28 -1 19 -7 -8 -5 -9 -9 -3 -9 6 0 19 8 30 18 10 10 25 19
33 19 8 0 1 -12 -17 -28z m-192 1 c0 -5 -5 -10 -11 -10 -5 0 -7 5 -4 10 3 6 8
10 11 10 2 0 4 -4 4 -10z m-97 -25 c-3 -9 -8 -14 -10 -11 -3 3 -2 9 2 15 9 16
15 13 8 -4z m-38 -45 c-12 -13 -22 -17 -28 -11 -13 13 1 31 25 31 21 0 21 -1
3 -20z m-62 -12 c-22 -11 -31 -28 -15 -28 5 0 9 -6 9 -13 0 -22 -23 -16 -25 7
-1 25 15 46 37 45 11 0 10 -3 -6 -11z m217 -8 c0 -5 -10 -10 -22 -10 -19 0
-20 -2 -8 -10 11 -8 9 -9 -12 -8 -36 3 -35 6 5 23 39 17 37 17 37 5z m-280
-44 c0 -2 -7 -7 -16 -10 -8 -3 -12 -2 -9 4 6 10 25 14 25 6z m155 -35 c-3 -6
-11 -11 -16 -11 -5 0 -4 6 3 14 14 16 24 13 13 -3z m1592 -1583 c13 -12 23
-32 23 -44 0 -22 -175 -329 -220 -386 -28 -36 -72 -37 -105 -3 -14 13 -25 33
-25 43 0 17 197 357 230 396 18 23 70 20 97 -6z m-323 -18 c14 -5 32 -23 41
-39 45 -88 -63 -155 -136 -85 -72 69 -1 161 95 124z m517 -25 c33 -18 52 -55
42 -82 -4 -10 -45 -83 -92 -163 -177 -304 -164 -285 -200 -288 -42 -4 -81 29
-81 69 0 16 25 70 58 126 32 54 91 153 131 220 40 67 80 124 89 126 9 3 18 5
20 6 2 0 16 -6 33 -14z m183 -146 c43 -34 36 -72 -37 -196 -35 -59 -79 -135
-98 -168 -30 -52 -39 -60 -68 -63 -39 -4 -67 18 -76 59 -5 23 4 47 46 121 60
108 137 237 152 256 14 18 51 15 81 -9z m109 -240 c77 -35 72 -159 -7 -159
-70 0 -117 99 -71 150 20 22 43 25 78 9z"/>
<path d="M8245 9100 c3 -5 11 -10 16 -10 6 0 7 5 4 10 -3 6 -11 10 -16 10 -6
0 -7 -4 -4 -10z"/>
<path d="M8040 9049 c0 -10 5 -21 10 -24 6 -3 10 0 10 7 0 10 3 9 11 -2 9 -12
10 -12 5 3 -3 10 -6 22 -6 26 0 4 -7 8 -15 8 -8 0 -15 -8 -15 -18z"/>
<path d="M8222 9041 c-10 -6 -7 -10 12 -13 21 -4 24 -3 15 8 -13 16 -11 16
-27 5z"/>
<path d="M8100 9021 c0 -6 4 -12 8 -15 5 -3 9 1 9 9 0 8 -4 15 -9 15 -4 0 -8
-4 -8 -9z"/>
<path d="M8247 8994 c3 -7 9 -14 14 -14 14 0 10 17 -5 23 -10 4 -13 1 -9 -9z"/>
<path d="M8040 8955 c-10 -12 -10 -15 2 -15 8 0 15 7 15 15 0 8 -1 15 -2 15
-2 0 -8 -7 -15 -15z"/>
<path d="M8074 8954 c3 -9 6 -18 6 -20 0 -3 10 1 23 7 12 7 23 10 24 8 1 -2 4
-1 7 4 3 4 3 5 0 3 -3 -2 -19 0 -36 4 -25 8 -29 7 -24 -6z"/>
<path d="M8198 8963 c7 -3 16 -2 19 1 4 3 -2 6 -13 5 -11 0 -14 -3 -6 -6z"/>
<path d="M8053 8782 c0 -10 7 -19 13 -19 9 0 10 5 3 19 -5 10 -12 18 -14 18
-2 0 -3 -8 -2 -18z"/>
<path d="M8028 8732 c-7 -24 6 -50 16 -33 4 6 1 11 -6 11 -10 0 -10 2 -1 8 7
4 9 13 4 21 -6 9 -10 8 -13 -7z"/>
<path d="M8065 8711 c-3 -5 -1 -12 5 -16 5 -3 10 1 10 9 0 18 -6 21 -15 7z"/>
<path d="M8110 8709 c0 -5 5 -7 10 -4 6 3 10 8 10 11 0 2 -4 4 -10 4 -5 0 -10
-5 -10 -11z"/>
<path d="M8305 8650 c3 -5 11 -10 16 -10 6 0 7 5 4 10 -3 6 -11 10 -16 10 -6
0 -7 -4 -4 -10z"/>
<path d="M7910 8719 c0 -5 5 -7 10 -4 6 3 10 8 10 11 0 2 -4 4 -10 4 -5 0 -10
-5 -10 -11z"/>
<path d="M8636 8352 c-2 -4 4 -8 14 -9 11 -1 22 2 25 8 4 5 -3 9 -14 9 -11 0
-22 -4 -25 -8z"/>
<path d="M8430 7625 c0 -9 -10 -20 -22 -25 -21 -8 -22 -9 -3 -9 21 -1 58 33
48 43 -11 11 -23 6 -23 -9z"/>
<path d="M8227 7583 c-10 -9 -9 -23 2 -23 5 0 11 7 15 15 5 15 -5 20 -17 8z"/>
<path d="M8245 7500 c3 -5 8 -10 11 -10 2 0 4 5 4 10 0 6 -5 10 -11 10 -5 0
-7 -4 -4 -10z"/>
<path d="M8281 7464 c0 -11 3 -14 6 -6 3 7 2 16 -1 19 -3 4 -6 -2 -5 -13z"/>
<path d="M8727 7469 c7 -7 15 -10 18 -7 3 3 -2 9 -12 12 -14 6 -15 5 -6 -5z"/>
<path d="M8360 7450 c0 -5 5 -10 10 -10 6 0 10 5 10 10 0 6 -4 10 -10 10 -5 0
-10 -4 -10 -10z"/>
<path d="M8190 7430 c0 -5 5 -10 11 -10 5 0 7 5 4 10 -3 6 -8 10 -11 10 -2 0
-4 -4 -4 -10z"/>
<path d="M8330 7415 c0 -8 4 -15 10 -15 5 0 7 7 4 15 -4 8 -8 15 -10 15 -2 0
-4 -7 -4 -15z"/>
<path d="M8358 7387 c-3 -19 -2 -25 4 -19 6 6 8 18 6 28 -3 14 -5 12 -10 -9z"/>
<path d="M8637 7313 c-4 -3 -7 -11 -7 -17 0 -6 5 -5 12 2 6 6 9 14 7 17 -3 3
-9 2 -12 -2z"/>
<path d="M8355 7270 c3 -5 10 -10 16 -10 5 0 9 5 9 10 0 6 -7 10 -16 10 -8 0
-12 -4 -9 -10z"/>
<path d="M8558 7263 c7 -3 16 -2 19 1 4 3 -2 6 -13 5 -11 0 -14 -3 -6 -6z"/>
<path d="M8390 7195 c-10 -12 -9 -15 4 -15 10 0 15 4 12 9 -4 5 0 12 6 14 8 4
9 6 2 6 -6 1 -17 -6 -24 -14z"/>
<path d="M8490 7198 c0 -11 28 -10 35 1 3 6 -4 9 -15 8 -11 -1 -20 -5 -20 -9z"/>
<path d="M8330 7180 c0 -13 18 -22 24 -11 3 5 -1 11 -9 15 -8 3 -15 1 -15 -4z"/>
<path d="M8050 7141 c0 -6 4 -13 10 -16 6 -3 7 1 4 9 -7 18 -14 21 -14 7z"/>
<path d="M8419 7073 c-13 -16 -12 -17 4 -4 16 13 21 21 13 21 -2 0 -10 -8 -17
-17z"/>
<path d="M8345 7070 c3 -5 8 -10 11 -10 2 0 4 5 4 10 0 6 -5 10 -11 10 -5 0
-7 -4 -4 -10z"/>
<path d="M8350 6975 c0 -8 2 -15 4 -15 2 0 6 7 10 15 3 8 1 15 -4 15 -6 0 -10
-7 -10 -15z"/>
<path d="M8010 6641 c0 -6 4 -13 10 -16 6 -3 7 1 4 9 -7 18 -14 21 -14 7z"/>
<path d="M8032 6590 c0 -14 2 -19 5 -12 2 6 2 18 0 25 -3 6 -5 1 -5 -13z"/>
</g>
</svg>
