<?xml version="1.0" encoding="UTF-8"?>
<svg version="1.1" xmlns="http://www.w3.org/2000/svg" width="368" height="512">
<path d="M0 0 C2.17769809 -0.00734945 4.35539229 -0.01593822 6.53308105 -0.02566528 C12.41945403 -0.04779487 18.30568666 -0.05081634 24.19209552 -0.04891777 C29.11740539 -0.0487977 34.04268593 -0.05737649 38.9679876 -0.06569529 C50.59212251 -0.08489767 62.21618561 -0.08782433 73.84033203 -0.08105469 C85.80899174 -0.07441246 97.77734338 -0.09729315 109.74594063 -0.13436842 C120.04525694 -0.16510826 130.34447436 -0.1764209 140.6438356 -0.1725316 C146.78494916 -0.17046899 152.92582276 -0.17586875 159.06689262 -0.20042419 C164.8430574 -0.22276012 170.61872234 -0.22075626 176.39488983 -0.20049667 C178.50673121 -0.19709905 180.6186067 -0.20212147 182.73040199 -0.21648026 C196.72484097 -0.3050208 208.6052218 -0.05167663 219.58032227 9.77539062 C221.13667004 11.36560036 222.67208171 12.97657255 224.18579102 14.60742188 C224.9856543 15.42662109 225.78551758 16.24582031 226.60961914 17.08984375 C232.37329102 23.08031537 232.37329102 23.08031537 232.37329102 25.41992188 C233.03329102 25.41992188 233.69329102 25.41992188 234.37329102 25.41992188 C235.74829102 26.81835937 235.74829102 26.81835937 237.37329102 28.79492188 C240.23374456 32.16787335 243.22198762 35.31665664 246.37329102 38.41992188 C249.93729404 41.9409851 253.27633269 45.55178195 256.52954102 49.35742188 C259.5267933 52.71028036 262.76488736 55.81885944 265.96313477 58.97851562 C268.64299976 61.69312765 271.12343543 64.52637132 273.59204102 67.43164062 C275.60231867 69.67556897 277.75366562 71.71826587 279.93579102 73.79492188 C285.93283758 79.7100975 291.88859249 87.73828854 292.62629068 96.38558245 C292.62840395 98.04900911 292.62840395 98.04900911 292.63055992 99.74604034 C292.63700881 101.02986807 292.64345771 102.3136958 292.65010202 103.6364274 C292.64715979 105.05909165 292.64402435 106.4817555 292.64071655 107.90441895 C292.64445304 109.41739806 292.64905456 110.93037524 292.6544472 112.44334936 C292.66669349 116.60275591 292.6664148 120.76208212 292.66405845 124.92150259 C292.66365067 129.40706214 292.67468588 133.89259579 292.68417358 138.37814331 C292.70079512 147.16833249 292.70628371 155.95849484 292.70739834 164.74869841 C292.70834857 171.89616476 292.71245766 179.04362226 292.71879959 186.19108582 C292.73641766 206.4599064 292.74563795 226.7287058 292.74413864 246.9975341 C292.74405873 248.09050605 292.74397882 249.183478 292.74389648 250.30957031 C292.74381472 251.40387901 292.74373296 252.4981877 292.74364872 253.62565726 C292.74283638 271.34780915 292.76195944 289.06987593 292.79017322 306.79200321 C292.81892085 324.99334008 292.83271237 343.19463548 292.83098567 361.39599562 C292.83032226 371.61275289 292.8357926 381.82942103 292.85734177 392.04615784 C292.8755786 400.74829581 292.8798806 409.45030428 292.86632292 418.15245312 C292.85980498 422.58952289 292.85963328 427.02634439 292.87702942 431.46339035 C292.89281818 435.53248576 292.88983779 439.60113726 292.87246116 443.67022222 C292.86940388 445.13530311 292.87297523 446.60041761 292.88418131 448.06545883 C293.00625954 465.17072926 288.2529048 479.47012129 276.33862305 491.94018555 C263.59938816 504.77913055 249.87679005 512.57513037 231.43632144 512.69207078 C230.45518494 512.68829146 229.47404845 512.68451213 228.46318054 512.68061829 C227.39815034 512.68444383 226.33312014 512.68826938 225.2358163 512.69221085 C221.6848292 512.7024885 218.13400539 512.69855862 214.58300781 512.69458008 C212.02975312 512.69892946 209.47649974 512.70411337 206.92324829 512.71006775 C200.71807941 512.72205694 194.51297023 512.724612 188.30779203 512.72226749 C183.2609079 512.7204808 178.21403688 512.72224147 173.16715431 512.72649193 C172.44746911 512.72708712 171.72778391 512.72768231 170.98629007 512.72829553 C169.52399565 512.72950735 168.06170123 512.73072148 166.59940682 512.73193791 C152.90024415 512.7428026 139.20110612 512.74065615 125.50194208 512.73455306 C112.98816145 512.72938598 100.47445872 512.74063574 87.9606935 512.75965128 C75.09176205 512.77905562 62.2228674 512.78728106 49.35392123 512.78352803 C42.13695481 512.78161978 34.92005465 512.7840667 27.7031002 512.79824257 C20.9142492 512.81144326 14.12557885 512.80886118 7.33671951 512.79583168 C4.85035079 512.79346987 2.36397107 512.79618635 -0.12238503 512.8044548 C-3.52698487 512.81495725 -6.93106589 512.80679308 -10.33564758 512.79414368 C-11.31009191 512.80151796 -12.28453624 512.80889225 -13.28850919 512.81648999 C-31.44070647 512.6754513 -45.91961139 504.85030826 -58.62670898 492.41992188 C-72.51292414 477.80644177 -76.09639439 461.22372737 -76.00765991 441.72021484 C-76.01112214 440.05198804 -76.01589048 438.38376353 -76.02184165 436.71554375 C-76.03430366 432.15952443 -76.02820323 427.60369492 -76.01888299 423.04767513 C-76.01207308 418.12326239 -76.02258333 413.19888145 -76.03082275 408.2744751 C-76.04414159 398.63866225 -76.04129059 389.00291962 -76.03258483 379.36710405 C-76.02580142 371.53377234 -76.02489441 363.70046027 -76.02815628 355.86712646 C-76.02861598 354.75097108 -76.02907568 353.63481569 -76.02954931 352.48483741 C-76.03050851 350.21717659 -76.03148115 347.94951577 -76.03246708 345.68185496 C-76.04101556 324.43297857 -76.03119534 303.18414104 -76.01506598 281.93527102 C-76.0016633 263.71464039 -76.00399155 245.4940671 -76.01782227 227.2734375 C-76.03388765 206.09903329 -76.04019164 184.92466313 -76.03098547 163.75025368 C-76.03002986 161.49107489 -76.02908674 159.23189609 -76.02815628 156.97271729 C-76.02769345 155.86124514 -76.02723063 154.74977298 -76.02675378 153.60461986 C-76.02416677 145.78342232 -76.02852866 137.96224643 -76.03559494 130.14105225 C-76.04402077 120.60573545 -76.041707 111.07049272 -76.02575271 101.53518438 C-76.01788461 96.67293314 -76.01475347 91.81080524 -76.02470016 86.94855499 C-76.03367784 82.49250137 -76.02866383 78.03668477 -76.01276751 73.58065248 C-76.00943268 71.97381201 -76.01108434 70.36695127 -76.01839487 68.76012397 C-76.10433534 48.29113807 -70.36827442 32.80996965 -56.18481445 17.95751953 C-40.04829565 2.03338988 -21.50408202 -0.03440264 0 0 Z " fill="#213E9E" transform="translate(75.626708984375,-0.419921875)"/>
<path d="M0 0 C18.81 0 37.62 0 57 0 C57.03738281 4.29902344 57.07476562 8.59804688 57.11328125 13.02734375 C57.15144264 16.47580661 57.19251496 19.92420774 57.2355423 23.372612 C57.28002788 27.00139723 57.31949799 30.63007168 57.34643555 34.2590332 C57.3726273 37.76058407 57.4131384 41.26171415 57.46318626 44.7630024 C57.48775634 46.73520969 57.49785851 48.70758032 57.50764465 50.67991638 C57.69786976 62.40994834 60.13104403 71.08479708 68 80 C76.28279969 87.19011764 85.43974654 91.02166641 96.43286133 91.20532227 C97.49358353 91.22526749 98.55430573 91.24521271 99.64717102 91.26576233 C100.7806749 91.28247482 101.91417877 91.29918732 103.08203125 91.31640625 C104.25134689 91.33718735 105.42066254 91.35796844 106.62541199 91.37937927 C110.35438253 91.44467414 114.08342247 91.50366659 117.8125 91.5625 C120.34310609 91.60570429 122.8737052 91.64931919 125.40429688 91.69335938 C131.60279158 91.800335 137.80135506 91.90213848 144 92 C144.0686672 135.54296433 144.12152934 179.08592294 144.15319599 222.62893074 C144.15694811 227.76962905 144.16083107 232.91032725 144.16479492 238.05102539 C144.16558185 239.07444546 144.16636878 240.09786554 144.16717956 241.15229834 C144.18023333 257.7231754 144.20388703 274.29402124 144.23145839 290.86487978 C144.25951337 307.86821788 144.27617646 324.87153963 144.28226548 341.87489992 C144.28638173 352.3668011 144.29938245 362.85861401 144.3237494 373.35048801 C144.33960772 380.54524381 144.34440013 387.73995399 144.34050413 394.93472599 C144.33858274 399.08567268 144.34152742 403.23646515 144.35761642 407.38738441 C144.37224971 411.19055627 144.37293024 414.99347065 144.36269668 418.79665453 C144.36083539 420.81808201 144.37374333 422.8395066 144.38724393 424.86088985 C144.33075583 436.32963337 141.7820508 443.84162961 135 453 C133.8553125 454.5778125 133.8553125 454.5778125 132.6875 456.1875 C129.19483699 459.84261245 125.27302625 462.34336196 121 465 C120.01 465.66 119.02 466.32 118 467 C79.41803043 474.71639391 39.34604314 470 0 470 C0 314.9 0 159.8 0 0 Z " fill="#213E9E" transform="translate(203,21)"/>
<path d="M0 0 C2.17769809 -0.00734945 4.35539229 -0.01593822 6.53308105 -0.02566528 C12.41945403 -0.04779487 18.30568666 -0.05081634 24.19209552 -0.04891777 C29.11740539 -0.0487977 34.04268593 -0.05737649 38.9679876 -0.06569529 C50.59212251 -0.08489767 62.21618561 -0.08782433 73.84033203 -0.08105469 C85.80899174 -0.07441246 97.77734338 -0.09729315 109.74594063 -0.13436842 C120.04525694 -0.16510826 130.34447436 -0.1764209 140.6438356 -0.1725316 C146.78494916 -0.17046899 152.92582276 -0.17586875 159.06689262 -0.20042419 C164.8430574 -0.22276012 170.61872234 -0.22075626 176.39488983 -0.20049667 C178.50673121 -0.19709905 180.6186067 -0.20212147 182.73040199 -0.21648026 C196.72484097 -0.3050208 208.6052218 -0.05167663 219.58032227 9.77539062 C221.13667004 11.36560036 222.67208171 12.97657255 224.18579102 14.60742188 C224.9856543 15.42662109 225.78551758 16.24582031 226.60961914 17.08984375 C232.37329102 23.08031537 232.37329102 23.08031537 232.37329102 25.41992188 C233.03329102 25.41992188 233.69329102 25.41992188 234.37329102 25.41992188 C235.74829102 26.81835937 235.74829102 26.81835937 237.37329102 28.79492188 C240.23374456 32.16787335 243.22198762 35.31665664 246.37329102 38.41992188 C249.93729404 41.9409851 253.27633269 45.55178195 256.52954102 49.35742188 C259.5267933 52.71028036 262.76488736 55.81885944 265.96313477 58.97851562 C268.64299976 61.69312765 271.12343543 64.52637132 273.59204102 67.43164062 C275.60231867 69.67556897 277.75366562 71.71826587 279.93579102 73.79492188 C285.93283758 79.7100975 291.88859249 87.73828854 292.62629068 96.38558245 C292.62840395 98.04900911 292.62840395 98.04900911 292.63055992 99.74604034 C292.63700881 101.02986807 292.64345771 102.3136958 292.65010202 103.6364274 C292.64715979 105.05909165 292.64402435 106.4817555 292.64071655 107.90441895 C292.64445304 109.41739806 292.64905456 110.93037524 292.6544472 112.44334936 C292.66669349 116.60275591 292.6664148 120.76208212 292.66405845 124.92150259 C292.66365067 129.40706214 292.67468588 133.89259579 292.68417358 138.37814331 C292.70079512 147.16833249 292.70628371 155.95849484 292.70739834 164.74869841 C292.70834857 171.89616476 292.71245766 179.04362226 292.71879959 186.19108582 C292.73641766 206.4599064 292.74563795 226.7287058 292.74413864 246.9975341 C292.74405873 248.09050605 292.74397882 249.183478 292.74389648 250.30957031 C292.74381472 251.40387901 292.74373296 252.4981877 292.74364872 253.62565726 C292.74283638 271.34780915 292.76195944 289.06987593 292.79017322 306.79200321 C292.81892085 324.99334008 292.83271237 343.19463548 292.83098567 361.39599562 C292.83032226 371.61275289 292.8357926 381.82942103 292.85734177 392.04615784 C292.8755786 400.74829581 292.8798806 409.45030428 292.86632292 418.15245312 C292.85980498 422.58952289 292.85963328 427.02634439 292.87702942 431.46339035 C292.89281818 435.53248576 292.88983779 439.60113726 292.87246116 443.67022222 C292.86940388 445.13530311 292.87297523 446.60041761 292.88418131 448.06545883 C293.00625954 465.17072926 288.2529048 479.47012129 276.33862305 491.94018555 C263.59938816 504.77913055 249.87679005 512.57513037 231.43632144 512.69207078 C230.45518494 512.68829146 229.47404845 512.68451213 228.46318054 512.68061829 C227.39815034 512.68444383 226.33312014 512.68826938 225.2358163 512.69221085 C221.6848292 512.7024885 218.13400539 512.69855862 214.58300781 512.69458008 C212.02975312 512.69892946 209.47649974 512.70411337 206.92324829 512.71006775 C200.71807941 512.72205694 194.51297023 512.724612 188.30779203 512.72226749 C183.2609079 512.7204808 178.21403688 512.72224147 173.16715431 512.72649193 C172.44746911 512.72708712 171.72778391 512.72768231 170.98629007 512.72829553 C169.52399565 512.72950735 168.06170123 512.73072148 166.59940682 512.73193791 C152.90024415 512.7428026 139.20110612 512.74065615 125.50194208 512.73455306 C112.98816145 512.72938598 100.47445872 512.74063574 87.9606935 512.75965128 C75.09176205 512.77905562 62.2228674 512.78728106 49.35392123 512.78352803 C42.13695481 512.78161978 34.92005465 512.7840667 27.7031002 512.79824257 C20.9142492 512.81144326 14.12557885 512.80886118 7.33671951 512.79583168 C4.85035079 512.79346987 2.36397107 512.79618635 -0.12238503 512.8044548 C-3.52698487 512.81495725 -6.93106589 512.80679308 -10.33564758 512.79414368 C-11.31009191 512.80151796 -12.28453624 512.80889225 -13.28850919 512.81648999 C-31.44070647 512.6754513 -45.91961139 504.85030826 -58.62670898 492.41992188 C-72.51292414 477.80644177 -76.09639439 461.22372737 -76.00765991 441.72021484 C-76.01112214 440.05198804 -76.01589048 438.38376353 -76.02184165 436.71554375 C-76.03430366 432.15952443 -76.02820323 427.60369492 -76.01888299 423.04767513 C-76.01207308 418.12326239 -76.02258333 413.19888145 -76.03082275 408.2744751 C-76.04414159 398.63866225 -76.04129059 389.00291962 -76.03258483 379.36710405 C-76.02580142 371.53377234 -76.02489441 363.70046027 -76.02815628 355.86712646 C-76.02861598 354.75097108 -76.02907568 353.63481569 -76.02954931 352.48483741 C-76.03050851 350.21717659 -76.03148115 347.94951577 -76.03246708 345.68185496 C-76.04101556 324.43297857 -76.03119534 303.18414104 -76.01506598 281.93527102 C-76.0016633 263.71464039 -76.00399155 245.4940671 -76.01782227 227.2734375 C-76.03388765 206.09903329 -76.04019164 184.92466313 -76.03098547 163.75025368 C-76.03002986 161.49107489 -76.02908674 159.23189609 -76.02815628 156.97271729 C-76.02769345 155.86124514 -76.02723063 154.74977298 -76.02675378 153.60461986 C-76.02416677 145.78342232 -76.02852866 137.96224643 -76.03559494 130.14105225 C-76.04402077 120.60573545 -76.041707 111.07049272 -76.02575271 101.53518438 C-76.01788461 96.67293314 -76.01475347 91.81080524 -76.02470016 86.94855499 C-76.03367784 82.49250137 -76.02866383 78.03668477 -76.01276751 73.58065248 C-76.00943268 71.97381201 -76.01108434 70.36695127 -76.01839487 68.76012397 C-76.10433534 48.29113807 -70.36827442 32.80996965 -56.18481445 17.95751953 C-40.04829565 2.03338988 -21.50408202 -0.03440264 0 0 Z M-42.29858398 34.90820312 C-53.66053407 47.16614592 -55.08317022 60.57372999 -55.00765991 76.67079163 C-55.01112246 78.29023361 -55.01589102 79.90967323 -55.02184165 81.52910799 C-55.03429916 85.950241 -55.02820533 90.37117832 -55.01888299 94.79231179 C-55.01207127 99.57151014 -55.02258419 104.35067578 -55.03082275 109.12986755 C-55.04413937 118.48059449 -55.04129167 127.83124904 -55.03258483 137.18197877 C-55.02580094 144.78314911 -55.02489462 152.38429922 -55.02815628 159.98547173 C-55.02861598 161.0686115 -55.02907568 162.15175128 -55.02954931 163.26771347 C-55.03050851 165.46829602 -55.03148115 167.66887857 -55.03246708 169.86946111 C-55.0410148 190.48785512 -55.03119632 211.10620906 -55.01506598 231.72459649 C-55.00166147 249.40601732 -55.0039932 267.08737906 -55.01782227 284.76879883 C-55.03388571 305.31656712 -55.04019288 325.86430034 -55.03098547 346.41207403 C-55.03002986 348.60411194 -55.02908674 350.79614986 -55.02815628 352.98818779 C-55.02769345 354.06663133 -55.02723063 355.14507487 -55.02675378 356.25619851 C-55.02416633 363.84643181 -55.02852956 371.4366428 -55.03559494 379.02687263 C-55.04401854 388.27931786 -55.04171161 397.53168675 -55.02575271 406.78412325 C-55.0178819 411.50245795 -55.01475814 416.22066549 -55.02470016 420.93899918 C-55.03367208 425.26238953 -55.02867325 429.58553544 -55.01276751 433.90890377 C-55.00943028 435.46862036 -55.01108983 437.02835781 -55.01839487 438.58806086 C-55.08793688 454.67638862 -52.04985562 467.25989966 -40.93920898 479.27539062 C-6.39620678 511.3093572 90.35720947 491.41992188 106.37329102 491.41992188 C106.37329102 336.31992187 106.37329102 181.21992188 106.37329102 21.41992188 C37.46048629 11.34754256 37.46048629 11.34754256 -42.29858398 34.90820312 Z M127.37329102 21.41992188 C127.37329102 176.51992187 127.37329102 331.61992187 127.37329102 491.41992188 C178.68986278 498.62089836 178.68986278 498.62089836 254.37329102 482.41992188 C255.26016602 481.80117188 256.14704102 481.18242187 257.06079102 480.54492188 C264.57573176 473.63930065 270.90957396 463.86691617 271.55329156 453.52923024 C271.62597486 449.87016256 271.63002328 446.21630283 271.61380005 442.55653381 C271.61467278 441.13568512 271.616425 439.71483674 271.61897838 438.29399008 C271.62344266 434.39902427 271.6154609 430.5041688 271.60542226 426.60921705 C271.59677679 422.40548358 271.5997087 418.20175622 271.60122681 413.99801636 C271.60227496 406.71786592 271.59600559 399.43775136 271.58475113 392.15760994 C271.56848972 381.63178206 271.56328746 371.1059715 271.56077515 360.58013242 C271.55639905 343.50222363 271.54309226 326.42433396 271.52416992 309.34643555 C271.50580891 292.75789485 271.49165349 276.16935935 271.4831543 259.58081055 C271.48236613 258.04675992 271.48236613 258.04675992 271.48156203 256.48171837 C271.47895194 251.3510764 271.47642453 246.2204344 271.47393823 241.08979237 C271.45320839 198.53315563 271.41798518 155.97653974 271.37329102 113.41992188 C270.41394905 113.41112251 270.41394905 113.41112251 269.43522644 113.40214539 C262.73436864 113.33784657 256.03397501 113.25333566 249.33349609 113.1574707 C246.83811593 113.12436691 244.34266351 113.09629048 241.84716797 113.07348633 C238.24488746 113.03967223 234.64326055 112.98734255 231.04125977 112.93164062 C229.9387236 112.9252507 228.83618744 112.91886078 227.70024109 112.91227722 C214.82607044 112.67192937 205.44902637 109.50834532 195.68579102 101.10742188 C186.56477033 90.50731675 185.08150552 82.13456238 184.95922852 68.39257812 C184.94049347 67.03493605 184.92091836 65.67730534 184.90054321 64.31968689 C184.84946235 60.76718883 184.80970899 57.21465312 184.7723999 53.6619873 C184.7322084 50.02847195 184.68128927 46.39510754 184.63110352 42.76171875 C184.53362538 35.64784541 184.45391679 28.53408594 184.37329102 21.41992188 C165.56329102 21.41992188 146.75329102 21.41992188 127.37329102 21.41992188 Z " fill="#D3C8EE" transform="translate(75.626708984375,-0.419921875)"/>
<path d="M0 0 C6.16023024 5.56535822 10.19350387 13.49601886 11.15625 21.734375 C11.54140972 31.58557543 8.69651595 40.57436534 2.1953125 48.08203125 C1.11055532 49.20527206 0.00944874 50.31330101 -1.1171875 51.39453125 C-2.1071875 52.38453125 -2.1071875 52.38453125 -3.1171875 53.39453125 C-2.45074219 53.60207031 -1.78429687 53.80960938 -1.09765625 54.0234375 C12.10809164 58.43766652 22.33123599 65.14599535 28.7578125 77.70703125 C31.25858153 82.98183214 32.09034767 87.32684952 32.1328125 93.14453125 C32.1534375 93.83546875 32.1740625 94.52640625 32.1953125 95.23828125 C32.25041518 102.56693818 29.74506133 107.91542246 24.8828125 113.39453125 C15.92276091 119.94362715 6.70104765 120.28750213 -3.90625 120.19140625 C-5.50182627 120.19545996 -7.09739889 120.20129295 -8.69296265 120.20880127 C-12.01637493 120.21758621 -15.33881163 120.20498711 -18.66210938 120.17675781 C-22.89671483 120.14251654 -27.12904263 120.16232458 -31.36356544 120.1981926 C-34.65134503 120.21999102 -37.9385943 120.21292169 -41.22639084 120.19742584 C-42.7867193 120.19345832 -44.34709784 120.19821059 -45.90736771 120.21230316 C-56.18620364 120.28482368 -63.84744919 119.1700364 -71.71646118 111.92132568 C-77.3823504 105.72167923 -78.69857551 99.65558774 -78.46484375 91.515625 C-77.12887133 79.52189511 -70.51684086 69.81883905 -61.48046875 62.1796875 C-55.8509733 57.92732482 -49.6299051 55.02733198 -43.1171875 52.39453125 C-43.80554688 51.77578125 -43.80554688 51.77578125 -44.5078125 51.14453125 C-52.17371429 43.92956486 -56.08905783 35.66791078 -56.4296875 25.01953125 C-56.23898499 15.75138919 -53.01642437 8.85080196 -46.9296875 1.89453125 C-32.8284994 -10.63985817 -15.16198041 -11.49736891 0 0 Z " fill="#D2C7EE" transform="translate(122.1171875,104.60546875)"/>
<path d="M0 0 C0.71954361 -0.00671722 1.43908722 -0.01343445 2.18043518 -0.02035522 C4.54435246 -0.03925585 6.90798466 -0.04325525 9.27197266 -0.04541016 C10.92575189 -0.05184326 12.57953 -0.058572 14.23330688 -0.06558228 C17.69479001 -0.07753494 21.15617348 -0.08126514 24.61767578 -0.08007812 C29.03821566 -0.07987497 33.45811241 -0.10718214 37.87849998 -0.14162254 C41.29302873 -0.16393386 44.70740367 -0.16791439 48.12199783 -0.16685867 C49.75098513 -0.16920807 51.37997709 -0.17799411 53.00889206 -0.19352341 C63.09219066 -0.28066027 70.51521413 -0.20683488 78.43603516 6.85302734 C82.21829603 11.19150305 82.8788595 13.98631515 82.89697266 19.55615234 C82.90695786 20.62358673 82.90695786 20.62358673 82.91714478 21.71258545 C82.92726456 23.21884583 82.931962 24.72515098 82.93164062 26.23144531 C82.93599387 28.51883511 82.97225983 30.80426274 83.01025391 33.09130859 C83.01612656 34.55874996 83.02009295 36.02620043 83.02197266 37.49365234 C83.03634369 38.1699469 83.05071472 38.84624146 83.06552124 39.54302979 C83.01449863 44.93672883 81.49383219 47.92767186 78.56103516 52.29052734 C76.52587891 54.03271484 76.52587891 54.03271484 74.49853516 55.16552734 C73.49113281 55.74947266 73.49113281 55.74947266 72.46337891 56.34521484 C68.3612666 58.38363615 64.99363619 58.4278908 60.46264648 58.45166016 C59.74354095 58.45662506 59.02443542 58.46158997 58.28353882 58.46670532 C55.9033716 58.48131428 53.52327111 58.48812818 51.14306641 58.49365234 C49.4850006 58.49940654 47.8269348 58.50516424 46.16886902 58.51092529 C42.68948049 58.52143285 39.21011505 58.52727656 35.73071289 58.53076172 C31.28667598 58.53623417 26.84294735 58.5602363 22.39900684 58.58873367 C18.97162507 58.60742371 15.54431646 58.61256911 12.11688805 58.6140976 C10.47953297 58.61711226 8.84217882 58.62510047 7.20487404 58.63828278 C-11.34107787 58.7768943 -11.34107787 58.7768943 -17.71630859 53.35302734 C-18.26416016 52.67240234 -18.81201172 51.99177734 -19.37646484 51.29052734 C-19.94236328 50.60990234 -20.50826172 49.92927734 -21.09130859 49.22802734 C-24.72694203 44.00114566 -23.70015037 37.25941652 -23.73413086 31.14916992 C-23.74564476 29.70701278 -23.76608775 28.26489805 -23.7956543 26.82299805 C-23.83850409 24.73245474 -23.85452231 22.64317501 -23.86474609 20.55224609 C-23.87932861 19.30403076 -23.89391113 18.05581543 -23.90893555 16.76977539 C-23.16959103 11.29632155 -20.47085049 8.2775484 -16.56396484 4.54052734 C-11.20802068 0.68424755 -6.51601892 0.03836202 0 0 Z " fill="#D3C8EE" transform="translate(71.43896484375,263.70947265625)"/>
<path d="M0 0 C0.73540009 -0.00817749 1.47080017 -0.01635498 2.22848511 -0.02478027 C4.66395261 -0.04960238 7.0993617 -0.06614696 9.53491211 -0.08056641 C10.36918669 -0.08589008 11.20346127 -0.09121376 12.06301689 -0.09669876 C16.48357092 -0.12342351 20.90409684 -0.14279582 25.32470703 -0.15722656 C28.97079734 -0.17053465 32.61632385 -0.19832962 36.26220703 -0.23925781 C40.67481386 -0.28878751 45.08691157 -0.31337298 49.49978447 -0.32045364 C51.17460119 -0.32713458 52.84940796 -0.34227363 54.52406502 -0.36634445 C64.72050348 -0.50447736 73.27842133 -0.18094233 81.48268127 6.63189697 C85.20816903 10.28507476 85.20604004 14.968534 85.34350586 19.91943359 C85.35597052 22.12960491 85.33488908 24.33563038 85.29174805 26.54541016 C85.24972764 28.81939833 85.25070029 31.09043316 85.25756836 33.36474609 C85.16328488 46.44981824 85.16328488 46.44981824 80.17163086 51.92333984 C79.61991211 52.40416016 79.06819336 52.88498047 78.49975586 53.38037109 C77.95834961 53.86892578 77.41694336 54.35748047 76.85913086 54.86083984 C71.83424321 58.03396334 66.31425867 58.44748691 60.50439453 58.48339844 C59.81717819 58.49011566 59.12996185 58.49683289 58.42192078 58.50375366 C56.17044665 58.52261023 53.91927259 58.52665157 51.66772461 58.52880859 C50.08742658 58.5352453 48.50712971 58.54197429 46.92683411 58.54898071 C43.62095378 58.56092278 40.3151777 58.56466473 37.00927734 58.56347656 C32.79633529 58.56327359 28.58406943 58.5905663 24.37128735 58.62502098 C21.10851539 58.64738113 17.84590382 58.65131133 14.58306313 58.65025711 C13.03108708 58.65259973 11.4791057 58.66134687 9.92720604 58.67692184 C-9.21003057 58.8510044 -9.21003057 58.8510044 -16.20735168 52.38412476 C-22.07324307 45.97614118 -21.49928232 39.37744932 -21.54541016 31.10644531 C-21.55690957 29.67112351 -21.5773295 28.23584379 -21.60693359 26.80078125 C-21.91417441 11.89874324 -21.91417441 11.89874324 -17.25024414 6.19287109 C-15.43383789 4.45068359 -15.43383789 4.45068359 -13.68774414 3.31787109 C-13.10895508 2.92857422 -12.53016602 2.53927734 -11.93383789 2.13818359 C-8.0418665 -0.04709965 -4.32473047 0.02656503 0 0 Z " fill="#D1C7ED" transform="translate(69.250244140625,360.80712890625)"/>
<path d="M0 0 C7.36611865 6.20254587 7.36611865 6.20254587 10.62109375 9.70703125 C11.23791016 10.36703125 11.85472656 11.02703125 12.49023438 11.70703125 C13.13283203 12.40183594 13.77542969 13.09664062 14.4375 13.8125 C15.85276695 15.32951817 17.26813436 16.84644263 18.68359375 18.36328125 C19.75843018 19.51884521 19.75843018 19.51884521 20.85498047 20.69775391 C24.22236835 24.31196603 27.61167866 27.90542574 31 31.5 C32.3178462 32.89960978 33.6355538 34.29935008 34.953125 35.69921875 C35.61119141 36.39837402 36.26925781 37.0975293 36.94726562 37.81787109 C39.10653866 40.11325435 41.26432658 42.41002692 43.421875 44.70703125 C44.14632812 45.47789063 44.87078125 46.24875 45.6171875 47.04296875 C47.00312075 48.51774387 48.38856511 49.99297865 49.7734375 51.46875 C50.39992188 52.13519531 51.02640625 52.80164063 51.671875 53.48828125 C52.25130859 54.10525879 52.83074219 54.72223633 53.42773438 55.35791016 C54.73554535 56.72380093 56.08908392 58.04572867 57.453125 59.35546875 C59 61 59 61 59 63 C52.41647559 63.10161289 45.83315423 63.1715547 39.24902344 63.21972656 C37.01033979 63.23981316 34.77170842 63.2670878 32.53320312 63.30175781 C29.31106651 63.35040464 26.08962499 63.37299874 22.8671875 63.390625 C21.87008759 63.41127014 20.87298767 63.43191528 19.84567261 63.45318604 C12.83947356 63.45543664 9.42745172 62.32975714 4.35546875 57.40234375 C0.98443925 53.17446394 -0.12697679 50.40978533 -0.11352539 45.06958008 C-0.11344986 44.06876907 -0.11337433 43.06795807 -0.11329651 42.03681946 C-0.10813522 40.95861435 -0.10297394 39.88040924 -0.09765625 38.76953125 C-0.0962413 37.66397385 -0.09482635 36.55841644 -0.09336853 35.4193573 C-0.08776514 31.88371083 -0.07521204 28.34812738 -0.0625 24.8125 C-0.05748544 22.41731862 -0.05292246 20.02213625 -0.04882812 17.62695312 C-0.03779461 11.75128053 -0.02105316 5.87564477 0 0 Z " fill="#213E9E" transform="translate(281,28)"/>
<path d="M0 0 C1.53043945 -0.03673828 1.53043945 -0.03673828 3.09179688 -0.07421875 C11.37533177 -0.10593618 17.78593072 1.80905843 24.875 6.0625 C28.89075962 10.30773159 31.75687268 14.97364246 32.5 20.8125 C32.0625 23.375 32.0625 23.375 30.0625 25.375 C27.39903259 25.62223816 27.39903259 25.62223816 23.97631836 25.61791992 C22.69836899 25.62099655 21.42041962 25.62407318 20.10374451 25.62724304 C18.70327576 25.62034582 17.3028088 25.61307889 15.90234375 25.60546875 C14.47270245 25.60427706 13.04306035 25.60382376 11.61341858 25.6040802 C8.61649682 25.60251509 5.61969446 25.5942226 2.62280273 25.58081055 C-1.22659802 25.56380528 -5.07586764 25.55999662 -8.92530155 25.56075573 C-11.87716432 25.56048437 -14.82899818 25.55500899 -17.78085136 25.54775429 C-19.20068582 25.54456326 -20.62052356 25.5425992 -22.0403614 25.54186058 C-24.02049048 25.53970249 -26.00060744 25.53017331 -27.98071289 25.52026367 C-29.10941299 25.51645187 -30.2381131 25.51264008 -31.40101624 25.50871277 C-33.9375 25.375 -33.9375 25.375 -34.9375 24.375 C-35.54321511 18.6207065 -34.94797731 15.0375281 -31.61328125 10.265625 C-23.1050303 0.66657265 -12.08238676 0.01520754 0 0 Z " fill="#213F9E" transform="translate(100.9375,177.625)"/>
<path d="M0 0 C1.06347153 -0.00099701 2.12694305 -0.00199402 3.22264099 -0.00302124 C5.4625499 0.00164385 7.70247088 0.02100463 9.94213867 0.05419922 C13.36407453 0.10146555 16.78289776 0.09530218 20.20507812 0.08203125 C22.38673726 0.09318387 24.56838333 0.10740307 26.75 0.125 C27.76888809 0.12317719 28.78777618 0.12135437 29.83753967 0.11947632 C35.78529328 0.23783926 39.29421922 0.73884235 43.80859375 4.7265625 C46.31163753 8.48112817 46.26139449 10.27402184 45.80859375 14.7265625 C43.78193137 18.43046271 42.32814859 20.38019261 38.80859375 22.7265625 C36.5900116 23.00071716 36.5900116 23.00071716 33.97338867 23.03295898 C32.99194382 23.04894638 32.01049896 23.06493378 30.99931335 23.08140564 C29.93993057 23.08676834 28.88054779 23.09213104 27.7890625 23.09765625 C26.69773514 23.10668472 25.60640778 23.1157132 24.48200989 23.12501526 C22.1712214 23.13953165 19.86039168 23.14840793 17.54956055 23.15209961 C14.01996209 23.16398215 10.49211928 23.21314517 6.96289062 23.26367188 C4.71745645 23.27313757 2.47201153 23.28037191 0.2265625 23.28515625 C-1.35340263 23.31445473 -1.35340263 23.31445473 -2.96528625 23.34434509 C-11.15613259 23.29410625 -11.15613259 23.29410625 -14.8425293 20.31665039 C-17.65208502 17.21857569 -18.4137046 15.5587767 -18.69140625 11.4765625 C-18.7996875 10.35507812 -18.7996875 10.35507812 -18.91015625 9.2109375 C-16.36057212 0.39824454 -7.79894134 -0.1412702 0 0 Z " fill="#CDC4EC" transform="translate(264.19140625,281.2734375)"/>
<path d="M0 0 C1.00154114 -0.01606293 2.00308228 -0.03212585 3.03497314 -0.04867554 C7.62242999 -0.09311363 12.20974149 -0.13419821 16.79736328 -0.15722656 C19.2164065 -0.17377979 21.63540094 -0.20106111 24.05419922 -0.23925781 C27.54127389 -0.29404857 31.02720115 -0.31590588 34.51464844 -0.33056641 C35.59296936 -0.35323578 36.67129028 -0.37590515 37.7822876 -0.39926147 C46.16980756 -0.37569026 46.16980756 -0.37569026 49.85351562 2.53808594 C52.61526846 5.68075026 53.10286888 7.43998008 53.56152344 11.56787109 C53.18652344 15.19287109 53.18652344 15.19287109 50.81152344 18.06787109 C47.33745268 20.88021409 45.74797974 21.32205766 41.37304688 21.38574219 C40.37150574 21.40180511 39.3699646 21.41786804 38.33807373 21.43441772 C33.75061688 21.47885582 29.16330539 21.51994039 24.57568359 21.54296875 C22.15664037 21.55952198 19.73764594 21.58680329 17.31884766 21.625 C13.83177299 21.67979076 10.34584573 21.70164807 6.85839844 21.71630859 C5.78007751 21.73897797 4.70175659 21.76164734 3.59075928 21.78500366 C-4.79629414 21.76143376 -4.79629414 21.76143376 -8.49755859 18.81640625 C-11.69921271 15.18948498 -11.55842904 13.20507388 -11.28222656 8.57177734 C-10.62978183 5.26062032 -9.28485946 3.44619079 -6.81347656 1.19287109 C-4.36946349 -0.02913544 -2.7327313 0.03977952 0 0 Z " fill="#D2C7EE" transform="translate(256.8134765625,378.80712890625)"/>
<path d="M0 0 C1.69933434 -0.00361794 1.69933434 -0.00361794 3.43299866 -0.00730896 C5.82605493 -0.00633056 8.21913385 0.00706113 10.61206055 0.03198242 C14.2688518 0.06625345 17.92322137 0.05264794 21.58007812 0.03320312 C23.90756234 0.04010271 26.23504033 0.04977611 28.5625 0.0625 C29.65328354 0.05754013 30.74406708 0.05258026 31.86790466 0.04747009 C37.96724856 0.1417526 41.73574968 0.48559689 46.34765625 4.62890625 C47.87980513 7.69320401 47.57704173 10.24547045 47.34765625 13.62890625 C45.65839033 17.34529128 43.78602093 19.46985622 40.34765625 21.62890625 C37.96412659 22.02331543 37.96412659 22.02331543 35.29125977 22.04882812 C33.78433311 22.07269592 33.78433311 22.07269592 32.2469635 22.0970459 C31.16773117 22.09724731 30.08849884 22.09744873 28.9765625 22.09765625 C27.3048423 22.10907654 27.3048423 22.10907654 25.59934998 22.12072754 C23.24325805 22.1315293 20.88711825 22.13438136 18.53100586 22.12988281 C14.92675913 22.12891073 11.32464234 22.17053 7.72070312 22.21484375 C5.43099402 22.22005089 3.14127752 22.22273894 0.8515625 22.22265625 C-0.2256456 22.23905151 -1.3028537 22.25544678 -2.41270447 22.27233887 C-9.90082634 22.20319598 -9.90082634 22.20319598 -13.80883789 19.21679688 C-16.09713423 16.0045149 -16.85730827 14.20760281 -17.02734375 10.31640625 C-17.07632813 9.55714844 -17.1253125 8.79789063 -17.17578125 8.015625 C-15.24272145 -0.79855068 -7.24614175 -0.08791195 0 0 Z " fill="#D1C6ED" transform="translate(262.65234375,185.37109375)"/>
<path d="M0 0 C21.12 0 42.24 0 64 0 C64 5.28 64 10.56 64 16 C42.88 16 21.76 16 0 16 C0 10.72 0 5.44 0 0 Z " fill="#203E9E" transform="translate(69,285)"/>
<path d="M0 0 C21.12 0 42.24 0 64 0 C64 4.95 64 9.9 64 15 C42.88 15 21.76 15 0 15 C0 10.05 0 5.1 0 0 Z " fill="#203E9E" transform="translate(69,382)"/>
<path d="M0 0 C3.64331077 1.61924923 6.20425519 3.40851039 8 7 C8.58377585 11.26236343 8.44772276 14.85581962 6.875 18.875 C3.7685724 22.39561795 0.6093583 23.76530191 -4 24.4375 C-7.94665429 23.86194625 -9.96043437 22.56674431 -13 20 C-15.62399008 15.97654854 -16.87744544 12.77720293 -16 8 C-11.62106408 1.4918567 -8.01677412 -0.86334491 0 0 Z " fill="#2441A0" transform="translate(103,118)"/>
</svg>
